<svg width="189" height="189" viewBox="0 0 189 189" fill="none" xmlns="http://www.w3.org/2000/svg">
<path d="M185.2 65.5C187.435 63.2355 188.688 60.1818 188.688 57C188.688 53.8182 187.435 50.7645 185.2 48.5L140.5 3.79999C138.223 1.58857 135.174 0.351562 132 0.351562C128.826 0.351563 125.777 1.58857 123.5 3.79999L3.49997 123.8C2.3821 124.914 1.49696 126.239 0.896088 127.698C0.295211 129.158 -0.0094069 130.722 -3.42511e-05 132.3V177C-3.42511e-05 180.183 1.26425 183.235 3.51468 185.485C5.76512 187.736 8.81737 189 12 189H180C181.061 189 182.078 188.579 182.828 187.828C183.579 187.078 184 186.061 184 185C184 183.939 183.579 182.922 182.828 182.172C182.078 181.421 181.061 181 180 181H69.7L185.2 65.5ZM129.2 9.49999C129.564 9.12501 129.999 8.82687 130.48 8.62327C130.961 8.41968 131.478 8.31476 132 8.31476C132.522 8.31476 133.039 8.41968 133.52 8.62327C134.001 8.82687 134.436 9.12501 134.8 9.49999L179.5 54.2C179.875 54.5636 180.173 54.9988 180.377 55.4797C180.58 55.9607 180.685 56.4777 180.685 57C180.685 57.5223 180.58 58.0393 180.377 58.5202C180.173 59.0012 179.875 59.4364 179.5 59.8L156 83.3L105.7 33L129.2 9.49999ZM7.99997 177V132.3C7.98314 131.774 8.08187 131.251 8.2892 130.767C8.49653 130.283 8.80742 129.851 9.19997 129.5L100 38.7L150.3 89L58.3 181H12C10.9391 181 9.92169 180.579 9.17154 179.828C8.42139 179.078 7.99997 178.061 7.99997 177Z" fill="black"/>
</svg>
